<svg width="117" height="5" viewBox="0 0 117 5" fill="none" xmlns="http://www.w3.org/2000/svg">
<g clip-path="url(#clip0_18_469)">
<g opacity="0.7">
<g opacity="0.3">
<path opacity="0.3" d="M4.42163 2.66925C4.42163 1.36993 3.38125 0.590337 2.34086 0.590337C1.04038 0.330473 0 1.36993 0 2.66925C0 3.96858 1.04038 4.74817 2.08077 4.74817C3.38125 4.74817 4.42163 3.70871 4.42163 2.66925Z" fill="#F88A01"/>
</g>
<g opacity="0.5">
<path opacity="0.5" d="M21.8481 2.66925C21.8481 1.36993 20.8077 0.590338 19.7673 0.590338C18.4668 0.590338 17.6865 1.6298 17.6865 2.66925C17.6865 3.70871 18.4668 4.74817 19.5072 4.74817C20.8077 4.74817 21.8481 3.70871 21.8481 2.66925Z" fill="#F88A01"/>
</g>
<g opacity="0.7">
<path opacity="0.7" d="M39.2743 2.66925C39.2743 1.36993 38.2339 0.590338 37.1936 0.590338C36.1532 0.590338 35.1128 1.6298 35.1128 2.66925C35.1128 3.70871 35.8931 4.74817 37.1936 4.74817C38.494 4.74817 39.2743 3.70871 39.2743 2.66925Z" fill="#F88A01"/>
</g>
<g opacity="0.85">
<path opacity="0.85" d="M56.7011 2.66925C56.7011 1.36993 55.6607 0.590338 54.6203 0.590338C53.3198 0.590338 52.5396 1.6298 52.5396 2.66925C52.5396 3.70871 53.3198 4.74817 54.6203 4.74817C55.6607 4.74817 56.7011 3.70871 56.7011 2.66925Z" fill="#F88A01"/>
</g>
<g opacity="0.85">
<path opacity="0.85" d="M74.1274 2.66925C74.1274 1.36993 73.087 0.590338 72.0466 0.590338C70.7461 0.590338 69.9658 1.6298 69.9658 2.66925C69.9658 3.70871 70.7461 4.74817 72.0466 4.74817C73.087 4.74817 74.1274 3.70871 74.1274 2.66925Z" fill="#F88A01"/>
</g>
<g opacity="0.7">
<path opacity="0.7" d="M91.5536 2.66925C91.5536 1.36993 90.5132 0.590338 89.4729 0.590338C88.1724 0.590338 87.3921 1.6298 87.3921 2.66925C87.3921 3.70871 88.1724 4.74817 89.4729 4.74817C90.7733 4.74817 91.5536 3.70871 91.5536 2.66925Z" fill="#F88A01"/>
</g>
<g opacity="0.5">
<path opacity="0.5" d="M108.98 2.66925C108.98 1.36993 107.94 0.590338 106.899 0.590338C105.599 0.590338 104.818 1.6298 104.818 2.66925C104.818 3.70871 105.859 4.74817 106.899 4.74817C108.2 4.74817 108.98 3.70871 108.98 2.66925Z" fill="#F88A01"/>
</g>
</g>
</g>
<defs>
<clipPath id="clip0_18_469">
<rect width="126.667" height="4.4177" fill="white" transform="matrix(1 0 0 -1 0 4.74817)"/>
</clipPath>
</defs>
</svg>
