<svg width="117" height="6" viewBox="0 0 117 6" fill="none" xmlns="http://www.w3.org/2000/svg">
<g clip-path="url(#clip0_18_433)">
<g opacity="0.7">
<g opacity="0.3">
<path opacity="0.3" d="M4.42163 3.16207C4.42163 1.42964 3.38125 0.390184 2.34086 0.390184C1.04038 0.0436983 0 1.42964 0 3.16207C0 4.8945 1.04038 5.93396 2.08077 5.93396C3.38125 5.93396 4.42163 4.54802 4.42163 3.16207Z" fill="#F88A01"/>
</g>
<g opacity="0.5">
<path opacity="0.5" d="M21.8481 3.16207C21.8481 1.42964 20.8077 0.390185 19.7673 0.390185C18.4668 0.390185 17.6865 1.77613 17.6865 3.16207C17.6865 4.54802 18.4668 5.93396 19.5072 5.93396C20.8077 5.93396 21.8481 4.54802 21.8481 3.16207Z" fill="#F88A01"/>
</g>
<g opacity="0.7">
<path opacity="0.7" d="M39.2743 3.16207C39.2743 1.42964 38.2339 0.390185 37.1936 0.390185C36.1532 0.390185 35.1128 1.77613 35.1128 3.16207C35.1128 4.54802 35.8931 5.93396 37.1936 5.93396C38.494 5.93396 39.2743 4.54802 39.2743 3.16207Z" fill="#F88A01"/>
</g>
<g opacity="0.85">
<path opacity="0.85" d="M56.7011 3.16207C56.7011 1.42964 55.6607 0.390185 54.6203 0.390185C53.3198 0.390185 52.5396 1.77613 52.5396 3.16207C52.5396 4.54802 53.3198 5.93396 54.6203 5.93396C55.6607 5.93396 56.7011 4.54802 56.7011 3.16207Z" fill="#F88A01"/>
</g>
<g opacity="0.85">
<path opacity="0.85" d="M74.1274 3.16207C74.1274 1.42964 73.087 0.390185 72.0466 0.390185C70.7461 0.390185 69.9658 1.77613 69.9658 3.16207C69.9658 4.54802 70.7461 5.93396 72.0466 5.93396C73.087 5.93396 74.1274 4.54802 74.1274 3.16207Z" fill="#F88A01"/>
</g>
<g opacity="0.7">
<path opacity="0.7" d="M91.5536 3.16207C91.5536 1.42964 90.5132 0.390185 89.4729 0.390185C88.1724 0.390185 87.3921 1.77613 87.3921 3.16207C87.3921 4.54802 88.1724 5.93396 89.4729 5.93396C90.7733 5.93396 91.5536 4.54802 91.5536 3.16207Z" fill="#F88A01"/>
</g>
<g opacity="0.5">
<path opacity="0.5" d="M108.98 3.16207C108.98 1.42964 107.94 0.390185 106.899 0.390185C105.599 0.390185 104.818 1.77613 104.818 3.16207C104.818 4.54802 105.859 5.93396 106.899 5.93396C108.2 5.93396 108.98 4.54802 108.98 3.16207Z" fill="#F88A01"/>
</g>
</g>
</g>
<defs>
<clipPath id="clip0_18_433">
<rect width="126.667" height="5.89026" fill="white" transform="matrix(1 0 0 -1 0 5.93396)"/>
</clipPath>
</defs>
</svg>
