<svg width="12" height="16" viewBox="0 0 12 16" fill="none" xmlns="http://www.w3.org/2000/svg">
<path d="M10.6067 11.9999C11.2167 12.9119 11.474 13.4686 11.258 13.9333C11.2313 13.9901 11.2002 14.045 11.1647 14.0979C10.7813 14.6666 9.79134 14.6666 7.81134 14.6666H4.18867C2.20867 14.6666 1.21934 14.6666 0.836005 14.0979C0.801032 14.0453 0.769842 13.9903 0.742672 13.9333C0.526672 13.4686 0.784005 12.9119 1.39334 11.9999M8.00001 6.33325C8.00001 6.86368 7.78929 7.37239 7.41422 7.74747C7.03915 8.12254 6.53044 8.33325 6.00001 8.33325C5.46957 8.33325 4.96086 8.12254 4.58579 7.74747C4.21072 7.37239 4.00001 6.86368 4.00001 6.33325C4.00001 5.80282 4.21072 5.29411 4.58579 4.91904C4.96086 4.54397 5.46957 4.33325 6.00001 4.33325C6.53044 4.33325 7.03915 4.54397 7.41422 4.91904C7.78929 5.29411 8.00001 5.80282 8.00001 6.33325Z" stroke="white" stroke-width="1.1" stroke-linecap="round" stroke-linejoin="round"/>
<path d="M6 1.33325C8.706 1.33325 11 3.61859 11 6.39125C11 9.20792 8.66867 11.1846 6.51533 12.5286C6.35856 12.6188 6.18087 12.6663 6 12.6663C5.81913 12.6663 5.64144 12.6188 5.48467 12.5286C3.33533 11.1713 1 9.21792 1 6.39125C1 3.61859 3.294 1.33325 6 1.33325Z" stroke="white" stroke-width="1.1" stroke-linecap="round" stroke-linejoin="round"/>
</svg>
