<svg width="12" height="12" viewBox="0 0 12 12" fill="none" xmlns="http://www.w3.org/2000/svg">
<path d="M4 3C5.657 3 7 2.5525 7 2C7 1.4475 5.657 1 4 1C2.343 1 1 1.4475 1 2C1 2.5525 2.343 3 4 3ZM7.75 4.5C6.88805 4.5 6.0614 4.84241 5.4519 5.4519C4.84241 6.0614 4.5 6.88805 4.5 7.75C4.5 8.61195 4.84241 9.4386 5.4519 10.0481C6.0614 10.6576 6.88805 11 7.75 11C8.61195 11 9.4386 10.6576 10.0481 10.0481C10.6576 9.4386 11 8.61195 11 7.75C11 6.88805 10.6576 6.0614 10.0481 5.4519C9.4386 4.84241 8.61195 4.5 7.75 4.5Z" stroke="#33FCFF" stroke-linecap="round" stroke-linejoin="round"/>
<path d="M7.75 9.5C7.8025 9.5 7.851 9.475 7.9485 9.426L8.7305 9.028C9.077 8.852 9.25 8.7645 9.25 8.625V6.875M7.75 9.5C7.6975 9.5 7.649 9.475 7.5515 9.426L6.7695 9.028C6.423 8.852 6.25 8.7645 6.25 8.625V6.875M7.75 9.5V7.75M9.25 6.875C9.25 6.7355 9.077 6.648 8.7305 6.472L7.9485 6.074C7.851 6.025 7.8025 6 7.75 6C7.6975 6 7.649 6.025 7.5515 6.074L6.7695 6.472C6.423 6.6475 6.25 6.7355 6.25 6.875M9.25 6.875C9.25 7.0145 9.077 7.102 8.7305 7.278L7.9485 7.676C7.851 7.725 7.8025 7.75 7.75 7.75M6.25 6.875C6.25 7.0145 6.423 7.102 6.7695 7.278L7.5515 7.676C7.649 7.725 7.6975 7.75 7.75 7.75M1 2V6.0215C1 6.3735 1.589 6.8165 3.065 7M1.0535 4.274C1.656 4.805 2.73 5.03 3.877 5.03M6.994 2.0605V3.068" stroke="#33FCFF" stroke-linecap="round" stroke-linejoin="round"/>
</svg>
