<svg width="34" height="34" viewBox="0 0 34 34" fill="none" xmlns="http://www.w3.org/2000/svg">
<path d="M2.55532 33L30.667 33L31.4447 33L33 31.4588L33 3.31178L30.667 1L8.06444 1L1 8.44828L1 31.4588L2.55532 33Z" fill="url(#paint0_linear_29_3584)" fill-opacity="0.01" stroke="url(#paint1_linear_29_3584)"/>
<path d="M18.958 12.0291C19.4488 11.7762 20.0147 11.6852 20.5664 11.7722C21.1179 11.8592 21.6214 12.1182 22 12.5056L22.1875 12.698L22.4512 12.6472C22.5587 12.6267 22.6653 12.6025 22.7715 12.5769C22.7462 12.5927 22.7222 12.6108 22.6963 12.6257L23.002 13.5564C23.0339 13.5528 23.0658 13.5468 23.0977 13.5427C23.0288 13.5956 22.9592 13.6482 22.8877 13.698L22.6611 13.8552L22.6738 14.1316C22.6792 14.2482 22.6826 14.3682 22.6826 14.4851C22.6824 18.0942 19.827 22.2595 14.5908 22.2595C13.7172 22.26 12.8541 22.1238 12.0342 21.8611C13.012 21.6634 13.9373 21.2522 14.7344 20.6492L15.8848 19.7781L14.4424 19.7498C13.9121 19.7395 13.3996 19.5699 12.9775 19.2673C12.7794 19.1252 12.6067 18.9567 12.4619 18.7693C12.6778 18.7526 12.8922 18.7173 13.1025 18.6619L13.0703 17.6882C12.4955 17.5768 11.9818 17.2769 11.6152 16.8455C11.4141 16.6085 11.2654 16.3391 11.1709 16.0535C11.4108 16.1109 11.6568 16.1455 11.9053 16.1531L13.7051 16.2078L12.1914 15.2332C11.6579 14.8894 11.2852 14.3658 11.1426 13.7732C11.0551 13.4096 11.0568 13.0344 11.1455 12.6765C11.8422 13.3653 12.6508 13.9413 13.543 14.3767C14.6765 14.9299 15.918 15.2471 17.1855 15.3083L17.8516 15.3406L17.6953 14.6921C17.5723 14.1797 17.6281 13.6423 17.8545 13.1619C18.0811 12.6811 18.4676 12.2818 18.958 12.0291Z" fill="white" stroke="white"/>
<defs>
<linearGradient id="paint0_linear_29_3584" x1="32.9999" y1="1" x2="5.65506" y2="36.5778" gradientUnits="userSpaceOnUse">
<stop stop-color="#F70FFF"/>
<stop offset="1" stop-color="#12D6DF"/>
</linearGradient>
<linearGradient id="paint1_linear_29_3584" x1="33.1229" y1="21.6452" x2="0.981424" y2="21.489" gradientUnits="userSpaceOnUse">
<stop offset="0.132671" stop-color="#F88A01" stop-opacity="0.5"/>
<stop offset="0.769368" stop-color="#F66E14" stop-opacity="0.8"/>
<stop offset="0.978076" stop-color="#B49C01"/>
</linearGradient>
</defs>
</svg>
