<svg width="16" height="14" viewBox="0 0 16 14" fill="none" xmlns="http://www.w3.org/2000/svg">
<path d="M1.33325 3L5.94192 5.61133C7.64125 6.574 8.35858 6.574 10.0579 5.61133L14.6666 3" stroke="white" stroke-width="1.1" stroke-linecap="round" stroke-linejoin="round"/>
<path d="M1.34396 7.98389C1.38729 10.0272 1.40929 11.0492 2.16329 11.8059C2.91729 12.5632 3.96662 12.5892 6.06596 12.6419C7.35929 12.6752 8.64062 12.6752 9.93396 12.6419C12.0333 12.5892 13.0826 12.5632 13.8366 11.8059C14.5906 11.0492 14.6126 10.0272 14.6566 7.98389C14.67 7.32656 14.67 6.67323 14.6566 6.01589C14.6126 3.97256 14.5906 2.95056 13.8366 2.19389C13.0826 1.43656 12.0333 1.41056 9.93396 1.35789C8.64483 1.32536 7.35508 1.32536 6.06596 1.35789C3.96662 1.41056 2.91729 1.43656 2.16329 2.19389C1.40929 2.95056 1.38729 3.97256 1.34329 6.01589C1.32926 6.67182 1.32992 7.32797 1.34396 7.98389Z" stroke="white" stroke-width="1.1" stroke-linecap="round" stroke-linejoin="round"/>
</svg>
