<svg width="34" height="34" viewBox="0 0 34 34" fill="none" xmlns="http://www.w3.org/2000/svg">
<path d="M2.55532 33L30.667 33L31.4447 33L33 31.4588L33 3.31178L30.667 1L8.06444 1L1 8.44828L1 31.4588L2.55532 33Z" fill="url(#paint0_linear_29_3587)" fill-opacity="0.01" stroke="url(#paint1_linear_29_3587)"/>
<path d="M17.1929 10.46C20.1047 10.4601 22.2505 12.4031 22.2593 14.8906C22.2586 17.6256 20.4553 19.7 18.0825 19.7002C17.7048 19.7002 17.3364 19.607 17.0366 19.4609C16.7294 19.3112 16.5356 19.1264 16.4526 18.9775L15.8589 17.9131L15.5337 19.0879V19.0898C15.5335 19.0906 15.5331 19.0915 15.5327 19.0928C15.5319 19.0958 15.5304 19.1005 15.5288 19.1064C15.5255 19.1185 15.5204 19.1365 15.5142 19.1592C15.5016 19.2046 15.4834 19.2701 15.4614 19.3496C15.4174 19.5088 15.3577 19.7252 15.2944 19.9541C15.1681 20.4114 15.0274 20.9199 14.9722 21.1221C14.8399 21.605 14.5247 22.2147 14.2104 22.7422C14.1988 22.7618 14.1859 22.7805 14.1743 22.7998C14.1722 22.7743 14.1695 22.7486 14.1675 22.7227C14.1203 22.1136 14.1172 21.4405 14.2368 20.957C14.3196 20.6234 14.584 19.5627 14.8276 18.585C14.9494 18.0962 15.0657 17.6279 15.1519 17.2822C15.1949 17.1095 15.2307 16.9673 15.2554 16.8682C15.2677 16.8186 15.2771 16.7793 15.2837 16.7529C15.2869 16.7401 15.2898 16.7304 15.2915 16.7236C15.2923 16.7204 15.293 16.7175 15.2935 16.7158V16.7129L15.3403 16.5273L15.2524 16.3613C15.252 16.3604 15.2506 16.3578 15.2485 16.3535C15.2442 16.3445 15.2366 16.3281 15.2271 16.3057C15.2079 16.2604 15.1799 16.189 15.1519 16.0967C15.0957 15.9114 15.0396 15.644 15.0396 15.3252C15.0397 14.3007 15.6458 13.7501 16.1714 13.75C16.4249 13.75 16.5654 13.8344 16.6489 13.9307C16.7414 14.0374 16.8091 14.2125 16.8091 14.4512C16.809 14.7298 16.7108 15.1163 16.5532 15.6152C16.4053 16.0836 16.2079 16.6446 16.0767 17.1729L16.0757 17.1748C15.9319 17.7622 16.0872 18.3173 16.4458 18.7188C16.7986 19.1136 17.3254 19.3369 17.897 19.3369C19.903 19.3369 21.228 17.3636 21.228 14.9287C21.228 13.7739 20.7871 12.7697 20.0151 12.0576C19.2461 11.3483 18.1779 10.9552 16.9624 10.9551C14.1277 10.9551 12.394 13.0019 12.394 15.1621C12.3941 15.9561 12.6904 16.8037 13.1108 17.3418C13.0737 17.4837 13.0281 17.6584 12.9878 17.8135C12.676 17.5944 12.3957 17.2551 12.1763 16.834C11.8941 16.2923 11.7397 15.6683 11.7397 15.1289C11.7398 13.9102 12.2059 12.7513 13.104 11.8955C14.0003 11.0414 15.3589 10.46 17.1929 10.46Z" fill="white" stroke="white"/>
<defs>
<linearGradient id="paint0_linear_29_3587" x1="32.9999" y1="1" x2="5.65506" y2="36.5778" gradientUnits="userSpaceOnUse">
<stop stop-color="#F70FFF"/>
<stop offset="1" stop-color="#12D6DF"/>
</linearGradient>
<linearGradient id="paint1_linear_29_3587" x1="33.1229" y1="21.6452" x2="0.981424" y2="21.489" gradientUnits="userSpaceOnUse">
<stop offset="0.132671" stop-color="#F88A01" stop-opacity="0.5"/>
<stop offset="0.769368" stop-color="#F66E14" stop-opacity="0.8"/>
<stop offset="0.978076" stop-color="#B49C01"/>
</linearGradient>
</defs>
</svg>
