<svg width="34" height="34" viewBox="0 0 34 34" fill="none" xmlns="http://www.w3.org/2000/svg">
<path d="M2.55532 33L30.667 33L31.4447 33L33 31.4588L33 3.31178L30.667 1L8.06444 1L1 8.44828L1 31.4588L2.55532 33Z" fill="url(#paint0_linear_29_3596)" fill-opacity="0.01" stroke="url(#paint1_linear_29_3596)"/>
<path d="M18.8125 10.46C19.4182 10.46 19.9669 10.4886 20.3398 10.5156V11.7969L19.4482 11.7979C18.8424 11.7979 18.3407 11.9328 18.0127 12.3037C17.6956 12.6624 17.6455 13.1298 17.6455 13.5166V15.6143H20.1758L19.9717 17.1182H17.6455V23.54H15.9307V17.1182H13.6602V15.6143H15.9307V13.2686C15.9307 12.3084 16.235 11.6226 16.7109 11.1748C17.1914 10.7228 17.9035 10.46 18.8125 10.46Z" fill="white" stroke="white"/>
<defs>
<linearGradient id="paint0_linear_29_3596" x1="32.9999" y1="1" x2="5.65506" y2="36.5778" gradientUnits="userSpaceOnUse">
<stop stop-color="#F70FFF"/>
<stop offset="1" stop-color="#12D6DF"/>
</linearGradient>
<linearGradient id="paint1_linear_29_3596" x1="33.1229" y1="21.6452" x2="0.981424" y2="21.489" gradientUnits="userSpaceOnUse">
<stop offset="0.132671" stop-color="#F88A01" stop-opacity="0.5"/>
<stop offset="0.769368" stop-color="#F66E14" stop-opacity="0.8"/>
<stop offset="0.978076" stop-color="#B49C01"/>
</linearGradient>
</defs>
</svg>
