<svg width="34" height="34" viewBox="0 0 34 34" fill="none" xmlns="http://www.w3.org/2000/svg">
<path d="M2.55532 33L30.667 33L31.4447 33L33 31.4588L33 3.31178L30.667 1L8.06444 1L1 8.44828L1 31.4588L2.55532 33Z" fill="url(#paint0_linear_29_3590)" fill-opacity="0.01" stroke="url(#paint1_linear_29_3590)"/>
<path d="M20.2202 15.1396C21.439 15.1396 22.0495 15.53 22.394 16.0771C22.7719 16.6774 22.8999 17.5678 22.8999 18.7051V22.8994H21.2485V19.2393C21.2485 18.7653 21.2502 18.0984 21.0337 17.5518C20.9197 17.2641 20.7364 16.9844 20.4438 16.7803C20.1502 16.5755 19.7882 16.4766 19.3687 16.4766C18.959 16.4766 18.5997 16.5567 18.2964 16.7246C17.99 16.8943 17.7698 17.1372 17.6177 17.4131C17.3265 17.9413 17.2778 18.6018 17.2778 19.168V22.8994H15.6274V15.3545H17.1733V16.5195H18.0122L18.1528 16.252C18.424 15.7374 19.124 15.1398 20.2202 15.1396Z" fill="white" stroke="white"/>
<path d="M12.9644 15.355V22.8999H11.311V15.355H12.9644Z" fill="white" stroke="white"/>
<path d="M12.1367 11.1003C12.7082 11.1004 13.1734 11.5648 13.1738 12.1375L13.168 12.2449C13.114 12.7732 12.6674 13.1891 12.1367 13.1892C11.5705 13.1892 11.0997 12.7158 11.0996 12.1375C11.0996 11.5651 11.5644 11.1003 12.1367 11.1003Z" fill="white" stroke="white"/>
<defs>
<linearGradient id="paint0_linear_29_3590" x1="32.9999" y1="1" x2="5.65506" y2="36.5778" gradientUnits="userSpaceOnUse">
<stop stop-color="#F70FFF"/>
<stop offset="1" stop-color="#12D6DF"/>
</linearGradient>
<linearGradient id="paint1_linear_29_3590" x1="33.1229" y1="21.6452" x2="0.981424" y2="21.489" gradientUnits="userSpaceOnUse">
<stop offset="0.132671" stop-color="#F88A01" stop-opacity="0.5"/>
<stop offset="0.769368" stop-color="#F66E14" stop-opacity="0.8"/>
<stop offset="0.978076" stop-color="#B49C01"/>
</linearGradient>
</defs>
</svg>
