<svg width="14" height="131" viewBox="0 0 14 131" fill="none" xmlns="http://www.w3.org/2000/svg">
<path d="M0.249512 15.2444L13.7495 0.177734V10.2222L0.249512 25.2888V15.2444Z" fill="url(#paint0_linear_18_491)"/>
<path d="M0.249512 30.3111L13.7495 15.2444V25.2888L0.249512 40.3555V30.3111Z" fill="url(#paint1_linear_18_491)"/>
<path d="M0.249512 45.3778L13.7495 30.3112V40.3556L0.249512 55.4223V45.3778Z" fill="url(#paint2_linear_18_491)"/>
<path d="M0.249512 60.4445L13.7495 45.3778V55.4223L0.249512 70.4889V60.4445Z" fill="url(#paint3_linear_18_491)"/>
<path d="M0.249512 75.5111L13.7495 60.4445V70.4889L0.249512 85.5556V75.5111Z" fill="url(#paint4_linear_18_491)"/>
<path d="M0.249512 90.5778L13.7495 75.5111V85.5556L0.249512 100.622V90.5778Z" fill="url(#paint5_linear_18_491)"/>
<path d="M0.249512 105.644L13.7495 90.5778V100.622L0.249512 115.689V105.644Z" fill="url(#paint6_linear_18_491)"/>
<path d="M0.249512 120.711L13.7495 105.644V115.689L0.249512 130.756V120.711Z" fill="url(#paint7_linear_18_491)"/>
<defs>
<linearGradient id="paint0_linear_18_491" x1="0.197674" y1="9.08812" x2="12.756" y2="9.14126" gradientUnits="userSpaceOnUse">
<stop stop-color="#F88A01"/>
<stop offset="1" stop-color="#F66E14"/>
</linearGradient>
<linearGradient id="paint1_linear_18_491" x1="0.197674" y1="24.1548" x2="12.756" y2="24.2079" gradientUnits="userSpaceOnUse">
<stop stop-color="#F88A01"/>
<stop offset="1" stop-color="#F66E14"/>
</linearGradient>
<linearGradient id="paint2_linear_18_491" x1="0.197674" y1="39.2215" x2="12.756" y2="39.2747" gradientUnits="userSpaceOnUse">
<stop stop-color="#F88A01"/>
<stop offset="1" stop-color="#F66E14"/>
</linearGradient>
<linearGradient id="paint3_linear_18_491" x1="0.197674" y1="54.2882" x2="12.756" y2="54.3413" gradientUnits="userSpaceOnUse">
<stop stop-color="#F88A01"/>
<stop offset="1" stop-color="#F66E14"/>
</linearGradient>
<linearGradient id="paint4_linear_18_491" x1="0.197674" y1="69.3548" x2="12.756" y2="69.408" gradientUnits="userSpaceOnUse">
<stop stop-color="#F88A01"/>
<stop offset="1" stop-color="#F66E14"/>
</linearGradient>
<linearGradient id="paint5_linear_18_491" x1="0.197674" y1="84.4215" x2="12.756" y2="84.4746" gradientUnits="userSpaceOnUse">
<stop stop-color="#F88A01"/>
<stop offset="1" stop-color="#F66E14"/>
</linearGradient>
<linearGradient id="paint6_linear_18_491" x1="0.197674" y1="99.4881" x2="12.756" y2="99.5413" gradientUnits="userSpaceOnUse">
<stop stop-color="#F88A01"/>
<stop offset="1" stop-color="#F66E14"/>
</linearGradient>
<linearGradient id="paint7_linear_18_491" x1="0.197674" y1="114.555" x2="12.756" y2="114.608" gradientUnits="userSpaceOnUse">
<stop stop-color="#F88A01"/>
<stop offset="1" stop-color="#F66E14"/>
</linearGradient>
</defs>
</svg>
