<svg width="12" height="13" viewBox="0 0 12 13" fill="none" xmlns="http://www.w3.org/2000/svg">
<path d="M6 11.5C8.48528 11.5 10.5 9.48528 10.5 7C10.5 4.51472 8.48528 2.5 6 2.5C3.51472 2.5 1.5 4.51472 1.5 7C1.5 9.48528 3.51472 11.5 6 11.5Z" stroke="white" stroke-linecap="round" stroke-linejoin="round"/>
<path d="M2.50004 10L1.50004 11M9.50004 10L10.5 11M9.50004 2.285L9.79804 2.136C10.2205 1.9245 10.379 1.949 10.715 2.285C11.051 2.621 11.075 2.78 10.864 3.202L10.715 3.5M2.50004 2.285L2.20204 2.136C1.77954 1.9245 1.62104 1.949 1.28504 2.285C0.949037 2.621 0.925037 2.78 1.13604 3.202L1.28504 3.5M6.00004 5.25V7.25L7.00004 8.25M6.00004 2.25V1.5M5.00004 1.5H7.00004" stroke="white" stroke-linecap="round" stroke-linejoin="round"/>
</svg>
