<svg width="12" height="13" viewBox="0 0 12 13" fill="none" xmlns="http://www.w3.org/2000/svg">
<path d="M4 3.5C5.657 3.5 7 3.0525 7 2.5C7 1.9475 5.657 1.5 4 1.5C2.343 1.5 1 1.9475 1 2.5C1 3.0525 2.343 3.5 4 3.5ZM7.75 5C6.88805 5 6.0614 5.34241 5.4519 5.9519C4.84241 6.5614 4.5 7.38805 4.5 8.25C4.5 9.11195 4.84241 9.9386 5.4519 10.5481C6.0614 11.1576 6.88805 11.5 7.75 11.5C8.61195 11.5 9.4386 11.1576 10.0481 10.5481C10.6576 9.9386 11 9.11195 11 8.25C11 7.38805 10.6576 6.5614 10.0481 5.9519C9.4386 5.34241 8.61195 5 7.75 5Z" stroke="white" stroke-linecap="round" stroke-linejoin="round"/>
<path d="M7.75 10C7.8025 10 7.851 9.975 7.9485 9.926L8.7305 9.528C9.077 9.352 9.25 9.2645 9.25 9.125V7.375M7.75 10C7.6975 10 7.649 9.975 7.5515 9.926L6.7695 9.528C6.423 9.352 6.25 9.2645 6.25 9.125V7.375M7.75 10V8.25M9.25 7.375C9.25 7.2355 9.077 7.148 8.7305 6.972L7.9485 6.574C7.851 6.525 7.8025 6.5 7.75 6.5C7.6975 6.5 7.649 6.525 7.5515 6.574L6.7695 6.972C6.423 7.1475 6.25 7.2355 6.25 7.375M9.25 7.375C9.25 7.5145 9.077 7.602 8.7305 7.778L7.9485 8.176C7.851 8.225 7.8025 8.25 7.75 8.25M6.25 7.375C6.25 7.5145 6.423 7.602 6.7695 7.778L7.5515 8.176C7.649 8.225 7.6975 8.25 7.75 8.25M1 2.5V6.5215C1 6.8735 1.589 7.3165 3.065 7.5M1.0535 4.774C1.656 5.305 2.73 5.53 3.877 5.53M6.994 2.5605V3.568" stroke="white" stroke-linecap="round" stroke-linejoin="round"/>
</svg>
